<svg width="26" height="26" viewBox="0 0 26 26" fill="none" xmlns="http://www.w3.org/2000/svg">
<path d="M18.2308 25V20.5828C18.2769 20.0385 18.1976 19.4914 17.9982 18.9777C17.7987 18.4641 17.4836 17.9957 17.0738 17.6037C20.9385 17.2042 25 15.846 25 9.61392C24.9997 8.02032 24.3387 6.48785 23.1538 5.33366C23.7149 3.93945 23.6752 2.39838 23.0431 1.03058C23.0431 1.03058 21.5908 0.631091 18.2308 2.71986C15.4099 2.01084 12.4363 2.01084 9.61539 2.71986C6.25538 0.631091 4.80308 1.03058 4.80308 1.03058C4.17092 2.39838 4.13125 3.93945 4.69231 5.33366C3.49862 6.49641 2.83695 8.04274 2.84615 9.64816C2.84615 15.8346 6.90769 17.1928 10.7723 17.638C10.3674 18.026 10.0551 18.4888 9.85576 18.9961C9.65644 19.5035 9.57453 20.0441 9.61539 20.5828V25M9.61539 21.5758C3.46154 23.2879 3.46154 18.7223 1 18.1516L9.61539 21.5758Z" stroke="white" stroke-width="1.5" stroke-linecap="round" stroke-linejoin="round"/>
</svg>
