<?xml version="1.0" encoding="utf-8"?>
<!-- Generator: Adobe Illustrator 23.0.1, SVG Export Plug-In . SVG Version: 6.00 Build 0)  -->
<svg version="1.1" id="Layer_1" xmlns="http://www.w3.org/2000/svg" xmlns:xlink="http://www.w3.org/1999/xlink" x="0px" y="0px"
	 viewBox="0 0 447.49 200" style="enable-background:new 0 0 447.49 200;" xml:space="preserve">
<style type="text/css">
	.st0{fill:#B01116;}
	.st1{fill:#4A555C;}
</style>
<g>
	<g>
		<g>
			<polygon class="st0" points="159.63,190.15 159.63,157.8 148.7,157.8 148.7,151.77 177.59,151.77 177.59,157.8 166.75,157.8 
				166.75,190.15 			"/>
			<path class="st0" d="M195.17,190.15V187l-2.84,1.55c-2.53,1.34-4.49,1.96-7.17,1.96c-4.85,0-8.1-3.15-8.1-7.74
				c0-5.67,4.44-8.3,10.06-8.3h8.1v-1.6c0-3.51-2.01-5.21-5.57-5.21c-3.71,0-5.88,1.55-5.88,4.75h-6.09v-0.36
				c0-6.14,4.85-9.6,11.92-9.6c7.43,0,11.71,3.71,11.71,10.21v17.49H195.17z M195.17,178.9h-7.22c-3.77,0-4.64,1.75-4.64,3.56
				c0,1.91,1.19,3.04,3.25,3.04c1.7,0,3.15-0.51,4.69-1.34l3.92-2.12V178.9z"/>
			<path class="st0" d="M225.45,199.64v-12.48l-3.09,1.7c-2.11,1.13-4.08,1.6-6.09,1.6c-5.62,0-9.34-3.77-9.34-9.29v-9.13
				c0-5.52,3.82-9.44,9.44-9.44c1.91,0,3.87,0.46,5.99,1.6l3.15,1.7v-2.94h6.09v36.68H225.45z M225.45,171.68l-4.33-2.42
				c-1.14-0.62-2.37-1.03-3.82-1.03c-2.58,0-4.28,1.76-4.28,4.44v7.74c0,2.68,1.7,4.44,4.28,4.44c1.45,0,2.68-0.41,3.82-1.09
				l4.33-2.37V171.68z"/>
			<path class="st0" d="M255.41,190.15V187l-2.89,1.7c-1.91,1.19-3.87,1.75-6.04,1.75c-5.31,0-8.56-3.56-8.56-8.82v-18.68h6.29v17.9
				c0,2.37,1.39,3.97,3.61,3.97c1.34,0,2.42-0.52,3.56-1.19l3.97-2.32v-18.36h6.24v27.19H255.41z"/>
			<path class="st0" d="M285.18,190.15V187l-2.84,1.55c-2.53,1.34-4.49,1.96-7.17,1.96c-4.85,0-8.1-3.15-8.1-7.74
				c0-5.67,4.44-8.3,10.06-8.3h8.1v-1.6c0-3.51-2.01-5.21-5.57-5.21c-3.72,0-5.88,1.55-5.88,4.75h-6.09v-0.36
				c0-6.14,4.85-9.6,11.92-9.6c7.43,0,11.71,3.71,11.71,10.21v17.49H285.18z M285.18,178.9h-7.22c-3.77,0-4.64,1.75-4.64,3.56
				c0,1.91,1.19,3.04,3.25,3.04c1.7,0,3.15-0.51,4.7-1.34l3.92-2.12V178.9z"/>
			<path class="st0" d="M297.5,190.15v-27.19h6.24v3.87l1.18-1.19c2.01-1.91,4.03-2.89,6.71-2.89h1.6v6.34h-1.55
				c-2.37,0-3.92,0.47-5.73,1.86l-2.11,1.75v17.44H297.5z"/>
			<path class="st0" d="M324.11,155.63c0,1.91-1.5,2.94-3.56,2.94c-2.01,0-3.56-1.03-3.56-2.94v-1.13c0-1.96,1.55-2.99,3.56-2.99
				c2.06,0,3.56,1.03,3.56,2.99V155.63z M317.36,162.96h6.4v27.19h-6.4V162.96z"/>
			<path class="st0" d="M342.63,190.15c-6.29,0-10.37-3.15-10.37-9.34v-12.54h-4.13v-5.31h4.13v-7.38h6.4v7.38h7.53v5.31h-7.53
				v12.17c0,3.2,1.44,4.28,4.49,4.28h3.2v5.42H342.63z"/>
			<path class="st0" d="M358.1,155.63c0,1.91-1.5,2.94-3.56,2.94c-2.01,0-3.56-1.03-3.56-2.94v-1.13c0-1.96,1.55-2.99,3.56-2.99
				c2.06,0,3.56,1.03,3.56,2.99V155.63z M351.35,162.96h6.4v27.19h-6.4V162.96z"/>
			<path class="st0" d="M381.73,190.15V172.3c0-2.06-1.13-4.02-3.61-4.02c-1.39,0-2.42,0.52-3.56,1.19l-3.97,2.37v18.31h-6.24
				v-27.19h6.19v3.2l2.89-1.75c2.06-1.29,3.97-1.7,6.03-1.76c5.31,0,8.56,3.56,8.56,8.82v18.67H381.73z"/>
			<path class="st0" d="M399.78,180.29c-1.24,0-1.86,0.57-1.86,1.81c0,1.09,0.67,1.7,1.75,1.7h10.52c6.29,0,9.75,2.42,9.75,7.48
				c0,5.67-5.11,8.72-12.48,8.72c-8.36,0-12.12-3.77-12.12-10.32v-2.73c-1.7-0.77-2.68-2.32-2.68-4.85c0-2.94,1.55-4.69,3.66-5.26
				c0,0-1.96-1.55-1.96-5.16c0-5.78,4.02-8.72,10.01-8.72h15.73v5.26h-3.87c0,0,1.34,1.09,1.34,3.72c0,5.21-3.82,8.36-9.85,8.36
				H399.78z M406.85,175.75c3.3,0,5.16-1.24,5.16-4.02c0-2.68-1.7-3.97-4.64-3.97h-2.37c-2.94,0-4.75,0.93-4.75,4.07
				c0,2.73,1.7,3.92,4.64,3.92H406.85z M400.91,188.39v1.13c0,3.71,1.55,5.78,6.45,5.78c4.33,0,6.6-1.19,6.6-3.87
				c0-2.32-1.81-3.04-4.64-3.04H400.91z"/>
			<path class="st0" d="M441.35,190.15V187l-2.84,1.55c-2.53,1.34-4.49,1.96-7.17,1.96c-4.85,0-8.1-3.15-8.1-7.74
				c0-5.67,4.44-8.3,10.06-8.3h8.1v-1.6c0-3.51-2.01-5.21-5.57-5.21c-3.71,0-5.88,1.55-5.88,4.75h-6.09v-0.36
				c0-6.14,4.85-9.6,11.92-9.6c7.43,0,11.71,3.71,11.71,10.21v17.49H441.35z M441.35,178.9h-7.22c-3.77,0-4.64,1.75-4.64,3.56
				c0,1.91,1.19,3.04,3.25,3.04c1.7,0,3.14-0.51,4.69-1.34l3.92-2.12V178.9z"/>
		</g>
		<g>
			<polygon class="st1" points="23.8,77.45 23.8,132.16 0,132.16 0,0 85.8,0 85.8,20.97 23.8,20.97 23.8,56.48 80.47,56.48 
				80.47,77.45 			"/>
			<path class="st1" d="M447.16,98.06c0,23.44-16.18,35.7-40.52,35.7c-24.15,0-40.31-13.32-40.31-36.59V73.9
				c0-23.27,16.16-36.78,40.31-36.78c24.34,0,40.52,12.43,40.52,35.89v1.6h-20.78c0-13.33-7.3-18.83-19.74-18.83
				c-12.25,0-19.35,6.38-19.35,19.89v19.53c0,13.51,7.11,19.9,19.35,19.9c12.44,0,19.74-5.32,19.74-18.65h20.78V98.06z"/>
			<path class="st1" d="M157.98,132.16v-10.83l-9.77,5.33c-8.7,4.62-15.45,6.76-24.7,6.76c-16.69,0-27.88-10.84-27.88-26.65
				c0-19.54,15.28-28.61,34.65-28.61h27.89v-5.5c0-12.09-6.94-17.95-19.2-17.95c-12.79,0-20.25,5.33-20.25,16.33H97.76v-1.23
				c0-21.15,16.71-33.05,41.04-33.05c25.58,0,40.33,12.78,40.33,35.16v60.22H157.98z M157.98,93.43h-24.86
				c-12.97,0-16,6.04-16,12.26c0,6.57,4.08,10.48,11.2,10.48c5.86,0,10.83-1.78,16.17-4.62l13.49-7.28V93.43z"/>
			<path class="st1" d="M241,132.16c-21.68,0-35.71-10.83-35.71-32.15V56.84h-14.22v-18.3h14.22v-25.4h22.02v25.4h25.93v18.3h-25.93
				v41.92c0,11.02,4.98,14.75,15.44,14.75h11.03v18.65H241z"/>
			<path class="st1" d="M347.62,102.68c0,19.01-16.35,31.09-41.04,31.09c-24.15,0-41.38-13.15-41.38-36.06V75.5
				c0-23.63,17.22-38.38,41.38-38.38c24.34,0,41.21,14.04,41.21,38.74v16.51h-62.17v4.62c0,13.33,8.88,19.19,21.13,19.19
				c12.1,0,20.26-4.26,20.26-14.39h20.61V102.68z M327.54,75.5c0-13.33-7.81-20.61-20.79-20.61c-13.13,0-21.13,7.28-21.13,20.79v2.3
				h41.92V75.5z"/>
		</g>
	</g>
</g>
</svg>
