<?xml version="1.0" encoding="utf-8"?>
<!-- Generator: Adobe Illustrator 23.0.1, SVG Export Plug-In . SVG Version: 6.00 Build 0)  -->
<svg version="1.1" id="Layer_1" xmlns="http://www.w3.org/2000/svg" xmlns:xlink="http://www.w3.org/1999/xlink" x="0px" y="0px"
	 viewBox="0 0 304.67 200" style="enable-background:new 0 0 304.67 200;" xml:space="preserve">
<style type="text/css">
	.st0{fill:#B01116;}
	.st1{fill:#12120D;}
</style>
<g>
	<path class="st0" d="M231.53,55.22c0.24-7.24,3.38-10.13,13.76-10.13h57.21V24.81h-53.59c-25.35,0-39.59,10.86-39.59,31.37
		c0,40.06,73.14,31.86,73.14,53.1c0,7.24-3.87,11.11-13.76,11.11h-74.83c7.57-9.24,12.18-21.15,12.18-34.76
		c0-34.27-22.2-63.23-59.85-63.23c-34.04,0-58.41,25.58-58.41,63.71v9.47H62.02c-20.03,0-39.82-13.03-39.82-37.65
		c0-24.62,19.79-37.65,39.82-37.65h16.42V0H58.16C31.14,0,0,20.76,0,57.92c0,37.16,31.14,57.92,58.16,57.92H87.8V200h21.24v-84.16
		h40.43V95.58h-40.43v-5.61c0-31.86,16.9-47.3,37.17-47.3c22.68,0,38.61,16.65,38.61,40.3c0,20.33-11.01,33.52-28.41,37.41h-27.09
		v20.27H268.7c20.52,0,35.97-10.38,35.97-32.34C304.67,66.8,231.29,75.25,231.53,55.22"/>
	<path class="st1" d="M146.72,170.87c-1.14,0.51-3.42,1.02-6.33,1.02c-6.76,0-11.85-3.81-11.85-10.84c0-6.71,5.09-11.26,12.52-11.26
		c2.99,0,4.87,0.58,5.7,0.96l-0.75,2.26c-1.18-0.51-2.85-0.89-4.84-0.89c-5.62,0-9.35,3.21-9.35,8.84c0,5.25,3.37,8.61,9.21,8.61
		c1.89,0,3.81-0.35,5.05-0.89L146.72,170.87z"/>
	<path class="st1" d="M151.84,164.39c0.07,3.78,2.78,5.34,5.91,5.34c2.25,0,3.59-0.35,4.76-0.79l0.54,1.99
		c-1.1,0.44-2.99,0.96-5.73,0.96c-5.3,0-8.47-3.12-8.47-7.76c0-4.64,3.06-8.3,8.08-8.3c5.62,0,7.11,4.42,7.11,7.25
		c0,0.57-0.07,1.02-0.11,1.3H151.84z M161.01,162.38c0.04-1.78-0.82-4.54-4.34-4.54c-3.17,0-4.55,2.6-4.81,4.54H161.01z"/>
	<path class="st1" d="M167.92,160.34c0-1.59-0.03-2.89-0.14-4.16h2.78l0.17,2.54h0.07c0.85-1.46,2.84-2.89,5.69-2.89
		c2.38,0,6.08,1.27,6.08,6.55v9.19h-3.14v-8.87c0-2.48-1.03-4.55-3.98-4.55c-2.06,0-3.67,1.3-4.2,2.86
		c-0.14,0.35-0.21,0.82-0.21,1.3v9.25h-3.13V160.34z"/>
	<path class="st1" d="M191.29,151.76v4.42h4.48v2.13h-4.48v8.3c0,1.9,0.6,2.98,2.34,2.98c0.82,0,1.43-0.09,1.81-0.19l0.15,2.1
		c-0.61,0.22-1.57,0.38-2.78,0.38c-1.46,0-2.63-0.41-3.38-1.18c-0.89-0.83-1.21-2.2-1.21-4v-8.4h-2.67v-2.13h2.67v-3.69
		L191.29,151.76z"/>
	<path class="st1" d="M199.29,160.98c0-1.81-0.03-3.37-0.14-4.8h2.74l0.11,3.02h0.14c0.78-2.06,2.66-3.37,4.76-3.37
		c0.35,0,0.6,0.04,0.89,0.1v2.63c-0.32-0.06-0.63-0.09-1.06-0.09c-2.2,0-3.77,1.5-4.2,3.59c-0.07,0.38-0.14,0.83-0.14,1.3v8.2h-3.1
		V160.98z"/>
	<path class="st1" d="M226.15,163.75c0,5.69-4.42,8.17-8.57,8.17c-4.66,0-8.25-3.05-8.25-7.91c0-5.15,3.77-8.17,8.54-8.17
		C222.8,155.83,226.15,159.04,226.15,163.75 M212.5,163.91c0,3.37,2.16,5.91,5.22,5.91c2.99,0,5.23-2.51,5.23-5.97
		c0-2.61-1.46-5.92-5.16-5.92C214.09,157.93,212.5,160.98,212.5,163.91"/>
	<path class="st1" d="M129.96,178.31c1.49-0.22,3.46-0.43,5.95-0.43c3.05,0,5.3,0.65,6.72,1.79c1.31,1.02,2.1,2.58,2.1,4.49
		c0,1.94-0.63,3.47-1.85,4.58c-1.64,1.56-4.3,2.36-7.32,2.36c-0.93,0-1.78-0.03-2.49-0.19v8.58h-3.1V178.31z M133.06,188.65
		c0.68,0.15,1.52,0.22,2.56,0.22c3.74,0,6.01-1.63,6.01-4.58c0-2.83-2.25-4.2-5.65-4.2c-1.35,0-2.38,0.1-2.92,0.23V188.65z"/>
	<path class="st1" d="M157.39,199.49l-0.25-1.94h-0.1c-0.96,1.21-2.81,2.29-5.27,2.29c-3.49,0-5.26-2.19-5.26-4.42
		c0-3.72,3.7-5.76,10.35-5.73v-0.32c0-1.27-0.39-3.55-3.91-3.55c-1.6,0-3.27,0.44-4.48,1.14l-0.72-1.85
		c1.43-0.82,3.49-1.37,5.65-1.37c5.27,0,6.56,3.21,6.56,6.3v5.76c0,1.33,0.07,2.64,0.28,3.69H157.39z M156.93,191.63
		c-3.42-0.06-7.29,0.48-7.29,3.47c0,1.81,1.34,2.67,2.95,2.67c2.25,0,3.67-1.27,4.17-2.57c0.11-0.29,0.18-0.61,0.18-0.89V191.63z"/>
	<path class="st1" d="M179.41,195.29c0,1.59,0.03,2.99,0.14,4.19h-2.77l-0.18-2.51h-0.07c-0.81,1.24-2.63,2.86-5.69,2.86
		c-2.7,0-5.94-1.33-5.94-6.74v-9h3.13v8.53c0,2.93,1,4.89,3.85,4.89c2.09,0,3.55-1.3,4.12-2.54c0.17-0.41,0.28-0.92,0.28-1.43v-9.45
		h3.14V195.29z"/>
	<rect x="184.6" y="176.91" class="st1" width="3.14" height="22.58"/>
	<path class="st1" d="M202.53,199.49l-0.25-1.94h-0.11c-0.96,1.21-2.81,2.29-5.27,2.29c-3.48,0-5.26-2.19-5.26-4.42
		c0-3.72,3.7-5.76,10.35-5.73v-0.32c0-1.27-0.39-3.55-3.91-3.55c-1.61,0-3.27,0.44-4.49,1.14l-0.71-1.85
		c1.42-0.82,3.49-1.37,5.65-1.37c5.27,0,6.55,3.21,6.55,6.3v5.76c0,1.33,0.07,2.64,0.28,3.69H202.53z M202.07,191.63
		c-3.41-0.06-7.3,0.48-7.3,3.47c0,1.81,1.35,2.67,2.95,2.67c2.24,0,3.67-1.27,4.16-2.57c0.11-0.29,0.18-0.61,0.18-0.89V191.63z"/>
	<path class="st1" d="M217.37,196.12c1.39,0.77,3.42,1.4,5.54,1.4c3.17,0,5.02-1.49,5.02-3.65c0-2-1.28-3.15-4.51-4.26
		c-3.92-1.24-6.33-3.05-6.33-6.07c0-3.34,3.09-5.82,7.75-5.82c2.45,0,4.24,0.5,5.3,1.05l-0.86,2.26c-0.78-0.38-2.38-1.02-4.56-1.02
		c-3.27,0-4.52,1.75-4.52,3.21c0,2,1.46,2.99,4.78,4.13c4.05,1.4,6.11,3.15,6.11,6.3c0,3.31-2.74,6.17-8.4,6.17
		c-2.31,0-4.84-0.6-6.12-1.37L217.37,196.12z"/>
	<path class="st1" d="M251.02,191.67c0,5.69-4.41,8.17-8.58,8.17c-4.66,0-8.25-3.05-8.25-7.92c0-5.15,3.77-8.17,8.54-8.17
		C247.67,183.75,251.02,186.96,251.02,191.67 M237.36,191.82c0,3.37,2.17,5.92,5.23,5.92c2.99,0,5.23-2.52,5.23-5.98
		c0-2.6-1.46-5.91-5.15-5.91C238.96,185.85,237.36,188.9,237.36,191.82"/>
	<path class="st1" d="M269.37,195.29c0,1.59,0.04,2.99,0.15,4.19h-2.79l-0.17-2.51h-0.07c-0.82,1.24-2.63,2.86-5.7,2.86
		c-2.7,0-5.94-1.33-5.94-6.74v-9h3.13v8.53c0,2.93,0.99,4.89,3.84,4.89c2.1,0,3.56-1.3,4.13-2.54c0.17-0.41,0.28-0.92,0.28-1.43
		v-9.45h3.13V195.29z"/>
	<path class="st1" d="M272.6,197.87l7.79-9.06c0.74-0.82,1.46-1.56,2.24-2.38v-0.06h-9.32v-2.26h13.13l-0.04,1.76l-7.69,8.93
		c-0.71,0.86-1.42,1.63-2.2,2.42v0.06h10.07v2.23H272.6V197.87z"/>
	<path class="st1" d="M299.31,199.49l-0.24-1.94h-0.11c-0.96,1.21-2.81,2.29-5.26,2.29c-3.49,0-5.27-2.19-5.27-4.42
		c0-3.72,3.7-5.76,10.35-5.73v-0.32c0-1.27-0.39-3.55-3.91-3.55c-1.61,0-3.27,0.44-4.49,1.14l-0.71-1.85
		c1.42-0.82,3.49-1.37,5.66-1.37c5.26,0,6.54,3.21,6.54,6.3v5.76c0,1.33,0.07,2.64,0.28,3.69H299.31z M298.86,191.63
		c-3.42-0.06-7.29,0.48-7.29,3.47c0,1.81,1.35,2.67,2.96,2.67c2.24,0,3.66-1.27,4.16-2.57c0.11-0.29,0.18-0.61,0.18-0.89V191.63z"/>
</g>
</svg>
